<?xml version="1.0" encoding="utf-8"?>
<!-- Generator: Adobe Illustrator 28.0.0, SVG Export Plug-In . SVG Version: 6.00 Build 0)  -->
<svg version="1.1" id="Camada_1" xmlns="http://www.w3.org/2000/svg" xmlns:xlink="http://www.w3.org/1999/xlink" x="0px" y="0px"
	 viewBox="0 0 288 288" style="enable-background:new 0 0 288 288;" xml:space="preserve">
<style type="text/css">
	.st0{fill:#005273;}
	.st1{fill:#18DEBA;}
</style>
<g>
	<path class="st0" d="M238.3,136.7c0-52-42.4-94.3-94.3-94.3s-94.3,42.4-94.3,94.3c0,43.7,29.9,80.6,70.3,91.2c0-0.1,0-0.2,0-0.2
		c-13.8-3.7-5.3-17-11.2-34.8c-18.7-11.8-31.1-32.6-31.1-56.2c0-36.5,29.8-66.3,66.3-66.3s66.3,29.8,66.3,66.3
		c0,23.5-12.3,44.2-30.8,55.9c-6.9,18.9,2,32-11.5,35c0,0.1,0,0.2,0,0.2C208.4,217.2,238.3,180.3,238.3,136.7z"/>
	<path class="st0" d="M120,227.9c-0.1,5.9-0.1,14,7.2,16.6c11,1.6,22.4,1.5,33.4-0.3c6.5-1.9,7.8-10,7.5-16.4
		c-7.7,2-15.8,3.1-24.1,3.1C135.7,231,127.6,229.9,120,227.9z"/>
	<path class="st0" d="M163.8,228.2c-13.6,2.1-26.5,2.1-40,0.1c-1.4-0.2-2.7-0.4-3.8-0.7c0,0.1,0,0.2,0,0.2c7.7,2,15.7,3.1,24,3.1
		c8.3,0,16.4-1.1,24.1-3.1c0-0.1,0-0.2,0-0.2C166.8,227.9,165.4,228.1,163.8,228.2z"/>
	<path class="st1" d="M93.9,170.7c-6.5-9.6-10.3-21.2-10.3-33.8c0-33.4,27-60.4,60.4-60.4s60.4,27,60.4,60.4
		c0,12.4-3.6,24-10.1,33.6c-4.2,6.9-5.3,6.9-9.3,11.5c-2.5,3.7-4.2,7.2-5.4,10.6c18.5-11.8,30.8-32.5,30.8-55.9
		c0-36.5-29.8-66.3-66.3-66.3s-66.3,29.8-66.3,66.3c0,23.6,12.4,44.4,31.1,56.2c-1.2-3.5-2.9-7.1-5.4-10.9
		C101,178.4,98.8,177.6,93.9,170.7z"/>
</g>
</svg>
