<?xml version="1.0" encoding="utf-8"?>
<!-- Generator: Adobe Illustrator 28.0.0, SVG Export Plug-In . SVG Version: 6.00 Build 0)  -->
<svg version="1.1" id="Camada_1" xmlns="http://www.w3.org/2000/svg" xmlns:xlink="http://www.w3.org/1999/xlink" x="0px" y="0px"
	 viewBox="0 0 842 595" style="enable-background:new 0 0 842 595;" xml:space="preserve">
<style type="text/css">
	.st0{fill:#005273;}
	.st1{fill:#18DEBA;}
	.st2{fill-rule:evenodd;clip-rule:evenodd;fill:#005273;}
	.st3{fill-rule:evenodd;clip-rule:evenodd;fill:#808080;}
</style>
<g>
	<g>
		<path class="st0" d="M242.17,247.8c0-51.96-42.38-94.33-94.33-94.33S53.5,195.85,53.5,247.8c0,43.66,29.92,80.55,70.3,91.22
			c0-0.08,0-0.16,0-0.24c-13.77-3.71-5.27-17.05-11.18-34.81C93.96,292.22,81.5,271.42,81.5,247.8c0-36.53,29.8-66.33,66.33-66.33
			c36.53,0,66.33,29.8,66.33,66.33c0,23.46-12.29,44.15-30.76,55.94c-6.95,18.88,1.95,31.98-11.51,35.02
			c0.01,0.08,0.01,0.16,0.02,0.24C212.27,328.32,242.17,291.44,242.17,247.8z"/>
		<path class="st0" d="M123.81,339.02c-0.12,5.9-0.13,14.04,7.22,16.64c11.04,1.65,22.41,1.55,33.42-0.29
			c6.52-1.85,7.83-10.01,7.47-16.36c-7.69,2.04-15.76,3.13-24.08,3.13C139.54,342.14,131.48,341.05,123.81,339.02z"/>
		<path class="st0" d="M167.63,339.35c-13.59,2.1-26.54,2.06-40.03,0.14c-1.42-0.17-2.67-0.41-3.79-0.71c0,0.08,0,0.16,0,0.24
			c7.68,2.03,15.73,3.12,24.03,3.12c8.32,0,16.39-1.09,24.08-3.13c0-0.08-0.01-0.16-0.02-0.24
			C170.67,339.05,169.26,339.24,167.63,339.35z"/>
		<path class="st1" d="M97.74,281.85c-6.51-9.64-10.3-21.25-10.3-33.75c0-33.36,27.04-60.4,60.4-60.4c33.36,0,60.4,27.04,60.4,60.4
			c0,12.4-3.64,24.03-10.07,33.6c-4.19,6.85-5.3,6.91-9.33,11.46c-2.46,3.7-4.19,7.24-5.43,10.59
			c18.47-11.8,30.76-32.48,30.76-55.94c0-36.53-29.8-66.33-66.33-66.33c-36.53,0-66.33,29.8-66.33,66.33
			c0,23.62,12.45,44.41,31.13,56.17c-1.15-3.47-2.86-7.11-5.38-10.87C104.87,289.57,102.62,288.74,97.74,281.85z"/>
	</g>
	<g>
		<path class="st2" d="M684.78,290.42c0,12.18,9.13,20.87,27.38,20.87h73.12c1.86,0.37,3.03,1.3,2.92,3.25l-0.05,19.55
			c-0.28,2.06-1.38,2.98-3.24,2.88h-88.02c-30.43,0-45.63-12.18-45.63-36.5V196.12c0-24.32,15.2-36.5,45.63-36.5h87.21
			c2.42-0.06,4.18,0.92,3.83,3.78c-0.56,13.66-7.21,22.87-23.41,22.73l-55.31,0.06c-18.25,0.02-24.13,5.97-24.43,20.18V290.42
			L684.78,290.42z M713.3,257.32c0.02,1.33,0.72,2.15,2.32,2.17h40.86c15.52-0.13,21.03-8.49,20.86-22.51
			c-0.17-2.07-1.29-3.2-3.14-3.17h-40.16C717.57,234.49,713.57,245.39,713.3,257.32z"/>
	</g>
	<path class="st3" d="M460.1,442.26c-0.1-2.98,1.19-4.84,4.41-5.13h14.39c-0.16,2.95-1.66,4.66-4.52,5.13H460.1z"/>
	<path class="st3" d="M557.81,373.08c-0.1-2.98,1.19-4.84,4.41-5.13h17.43c-0.16,2.95-1.66,4.66-4.52,5.13H557.81z"/>
	<path class="st2" d="M342.61,233.25c0.03-2.01,1.05-2.87,3.26-2.82c16.89,0.15,29.33,4.54,29.36,24.76v78.98
		c-0.03,2.05-1.64,2.73-3.48,2.69c-16.08-0.04-28.58-3.13-29.14-21.68V233.25L342.61,233.25z M265.38,160.04
		c-4.46,0.07-6.92,2.61-6.88,6.68v167.42c0.07,1.65,0.88,2.55,2.62,2.69h28.41c1.95,0.05,2.73-0.77,2.82-2.61V189.89
		c-0.01-2.87,1.19-4.53,4.32-4.26h78.75c32.9,0,50.6,23.94,50.5,53.39l-0.26,72.99c0,23.59,13.12,25.18,31.11,24.87
		c1.62,0.1,2.65-0.62,2.55-2.56l-0.21-91.76c-0.13-56.97-33.23-82.51-86.83-82.51H265.38z"/>
	<path class="st2" d="M485.21,160.05l82.12,0.01c43.56,0,65.51,17.12,65.25,62.87l-0.02,110.97c0.02,2.48-1.17,3.02-3.09,3.08
		c-17.98,0.74-29.8-2.89-30.1-28.14V222.3c0-22.06-7.2-36.77-33.61-36.77h-48.45c-4.11-0.25-6.11,1.61-5.9,5.69v143.01
		c-0.13,1.61-0.97,2.46-2.48,2.59h-28.45c-1.65-0.08-2.57-0.94-2.75-2.59V167.46C477.88,162.66,479.82,160.05,485.21,160.05z"/>
	<path class="st3" d="M117.11,431.97c0-2.04-0.73-3.81-2.18-5.25c-1.46-1.44-3.23-2.19-5.3-2.19H98.27c-5.3,0-9.82-1.89-13.57-5.63
		c-3.75-3.75-5.63-8.27-5.63-13.57c0-5.3,1.89-9.79,5.63-13.53c3.75-3.75,8.27-5.63,13.57-5.63h11.35c2.08,0,3.85-0.75,5.3-2.19
		c1.44-1.44,2.18-3.23,2.18-5.3H97.6c-7.19,0-13.38,2.48-18.53,7.49c-5.42,5.23-8.13,11.65-8.13,19.17c0,7.38,2.6,13.65,7.79,18.84
		c5.15,5.22,11.43,7.81,18.87,7.81H117.11L117.11,431.97z M214.33,431.97c1.23,0,2.44-0.34,3.67-0.96l-12.09-21.48
		c2.92-0.7,5.41-2.1,7.49-4.14c3.08-3.06,4.6-6.73,4.6-11.08c0-4.29-1.52-7.96-4.6-11.05c-3.09-3.08-6.76-4.6-11.06-4.6h-24.68
		c-1.38,0.09-2.32,0.78-2.62,2.35v50.95c2.04,0,3.82-0.73,5.27-2.19c1.48-1.44,2.23-3.22,2.23-5.27v-38.36h19.81
		c2.27,0,4.15,0.81,5.75,2.41c1.59,1.6,2.42,3.49,2.42,5.75c0,2.27-0.82,4.23-2.42,5.82c-1.6,1.59-3.48,2.37-5.75,2.37h-7.13
		c-2.08,0-3.85,0.75-5.3,2.19c-1.44,1.44-2.19,3.22-2.19,5.25h9.87l10.2,18.22c1.08,1.81,2.27,2.92,3.56,3.29
		C212.66,431.78,213.66,431.97,214.33,431.97L214.33,431.97z M275.9,431.97c2.04,0,3.82-0.75,5.27-2.19
		c1.48-1.44,2.23-3.23,2.23-5.27v-45.86c-2.08,0-3.86,0.75-5.3,2.19c-1.44,1.44-2.19,3.23-2.19,5.3V431.97L275.9,431.97z
		 M373.48,383.56c-0.85-2.09-2.27-3.53-4.27-4.35l-2.04-0.56l-0.41,0.04l-0.42-0.04l-2.04,0.56c-1.96,0.82-3.41,2.27-4.27,4.35
		l-18.76,48.41h2.27c3.15,0,5.48-1.63,7.08-4.84l16.14-41.61l9.63,24.96h-12.01c-2.04,0-3.82,0.75-5.27,2.19
		c-1.44,1.44-2.19,3.23-2.19,5.3h22.41l3.56,9.15c1.6,3.2,3.97,4.84,7.13,4.84h2.22L373.48,383.56L373.48,383.56z M489.46,431.97
		c0-2.04-0.73-3.81-2.18-5.25c-1.46-1.44-3.23-2.19-5.3-2.19h-11.35c-5.3,0-9.82-1.89-13.57-5.63c-3.75-3.75-5.63-8.27-5.63-13.57
		c0-5.3,1.89-9.79,5.63-13.53c3.75-3.75,8.27-5.63,13.57-5.63h11.35c2.08,0,3.85-0.75,5.3-2.19c1.44-1.44,2.18-3.23,2.18-5.3h-19.51
		c-7.19,0-13.38,2.48-18.53,7.49c-5.42,5.23-8.13,11.65-8.13,19.17c0,7.38,2.6,13.65,7.79,18.84c5.15,5.22,11.43,7.81,18.87,7.81
		H489.46L489.46,431.97z M568.1,431.97c7.33,0,13.61-2.6,18.77-7.76c5.18-5.18,7.77-11.52,7.77-19.04c0-7.33-2.6-13.6-7.77-18.73
		c-5.16-5.19-11.44-7.79-18.77-7.79c-7.35,0-13.63,2.6-18.84,7.79c-5.13,5.14-7.71,11.48-7.71,19c0,7.33,2.58,13.6,7.71,18.77
		C554.47,429.37,560.75,431.97,568.1,431.97L568.1,431.97z M568.33,423.69c-5.16,0-9.58-1.81-13.27-5.44
		c-3.65-3.66-5.46-8.04-5.46-13.19c0-5.14,1.81-9.56,5.46-13.18c3.68-3.67,8.1-5.48,13.27-5.48c5.16,0,9.54,1.81,13.23,5.48
		c3.68,3.62,5.49,8.04,5.49,13.18c0,5.15-1.81,9.53-5.49,13.19C577.88,421.88,573.5,423.69,568.33,423.69L568.33,423.69z
		 M676.56,404.84c2.04,0,3.82-0.75,5.27-2.19c1.44-1.44,2.19-3.23,2.19-5.3H669.7c-2.04,0-3.82,0.75-5.27,2.19
		c-1.45,1.45-2.19,3.23-2.19,5.3H676.56L676.56,404.84z M688.58,431.95H659c-7.35-0.05-11.15-4.6-11.15-10.81V388.9
		c-0.04-6.05,3.97-10.22,9.85-10.25h30.87c0,2.04-0.75,3.81-2.19,5.25c-1.44,1.44-3.23,2.19-5.27,2.19h-23.21
		c-1.49,0.03-2.57,1.04-2.57,2.61v32.5c-0.03,1.57,1.03,3.38,3.61,3.26h22.16c2.04,0,3.82,0.75,5.27,2.19
		C687.83,428.09,688.58,429.88,688.58,431.95L688.58,431.95z M773.97,431.97c5.61,0,9.99-2.48,13.14-7.44
		c1.41-2.33,2.11-4.92,2.11-7.79c0-2.82-0.71-5.42-2.11-7.75v-0.04c-2.78-4.52-6.86-7-12.28-7.44h-13.62c-2.27,0-4.2-0.85-5.72-2.52
		c-1.37-1.46-2.04-3.2-2.04-5.25c0-2.15,0.75-3.97,2.27-5.51c1.52-1.52,3.38-2.3,5.49-2.3h20.56c2.04,0,3.82-0.75,5.27-2.19
		c1.44-1.44,2.19-3.23,2.19-5.3h-28.01c-4.2,0-7.8,1.48-10.76,4.49c-3.01,2.92-4.49,6.53-4.49,10.81c0,2.84,0.71,5.43,2.11,7.77
		c2.75,4.44,6.82,6.92,12.2,7.44h13.7c2.15,0,3.97,0.77,5.49,2.29c1.52,1.52,2.27,3.38,2.27,5.57c0,2.33-0.89,4.27-2.71,5.78
		c-1.52,1.3-3.27,1.92-5.23,1.92h-20.34c-2.08,0-3.86,0.75-5.3,2.19c-1.44,1.44-2.19,3.22-2.19,5.25H773.97z"/>
</g>
</svg>
